<svg version="1.1" xmlns="http://www.w3.org/2000/svg" xmlns:xlink="http://www.w3.org/1999/xlink" width="1200px" height="1200px" viewBox="0,0,256,256"><g fill="none" fill-rule="nonzero" stroke="none" stroke-width="none" stroke-linecap="none" stroke-linejoin="none" stroke-miterlimit="10" stroke-dasharray="" stroke-dashoffset="0" font-family="none" font-weight="none" font-size="none" text-anchor="none" style="mix-blend-mode: normal"><g transform="translate(1.78799,1.02048) scale(0.21333,0.21333)"><path d="M441.86,462.51c110.69,-74.84 365,-274.07 498.13,-158.15c133.13,115.92 60.26,672.64 -331.99,612.64c-147.37,-22.5 -370,-34.93 -401.23,-104c-51.89,-114.84 165.98,-303.77 235.09,-350.49z" id="Path-141" fill="#e9e8e8" stroke="none" stroke-width="1" stroke-linecap="butt" stroke-linejoin="miter"></path><path d="M1121.79,415.74l-53.72,363.94c0,0.62 0,1.21 -0.1,1.83l-603.22,-0.1c0,-0.62 0,-1.22 0,-1.83l53.62,-364c0.62339,-4.5639 2.14612,-8.95875 4.48,-12.93c2.65679,-4.50557 6.1897,-8.43292 10.39,-11.55c1.51158,-1.11957 3.10619,-2.12247 4.77,-3c5.08878,-2.7615 10.78032,-4.22475 16.57,-4.26l539.42,0.16c17.64,0 30.1,14.25 27.77,31.76" fill="#e99ff4" stroke="none" stroke-width="1" stroke-linecap="butt" stroke-linejoin="miter"></path><path d="M1096.42,406.71h-559.63l-51.59,376.05h559.64z" fill="#1d252e" stroke="none" stroke-width="1" stroke-linecap="butt" stroke-linejoin="miter"></path><path d="M1088.58,413.56l-3.05,22.23l-0.67,4.91l-45.99,335.22h-545.81l45.98,-335.22l3.72,-27.14z" fill="#ffffff" stroke="none" stroke-width="1" stroke-linecap="butt" stroke-linejoin="miter"></path><path d="M1067.42,794.87l1.75,-8.47c0.26282,-1.69096 -0.22664,-3.41232 -1.33984,-4.71201c-1.1132,-1.29969 -2.7389,-2.04785 -4.45016,-2.04799l-720.22,1.22c-5.14747,0.05465 -9.34779,4.13622 -9.55,9.28l0.59,9.1c-0.12,3.93 3,4.37 6.85,4.37z" fill="#1d252e" stroke="none" stroke-width="1" stroke-linecap="butt" stroke-linejoin="miter"></path><path d="M1067.42,794.87l-2.18,16c-0.58721,4.3573 -4.31334,7.60429 -8.71,7.59l-712.53,-1.24c-5.15119,-0.05489 -9.35298,-4.14229 -9.55,-9.29l-0.29,-8.69c-0.12,-3.93 3,-4.37 6.85,-4.37z" fill="#ffffff" stroke="none" stroke-width="1" stroke-linecap="butt" stroke-linejoin="miter"></path><path d="M1066.52,801.44l-1.28,9.4c-0.58721,4.3573 -4.31334,7.60429 -8.71,7.59l-712.53,-1.21c-5.15119,-0.05489 -9.35298,-4.14229 -9.55,-9.29l-0.14,-4.32" fill="none" stroke="#1d252e" stroke-width="4" stroke-linecap="round" stroke-linejoin="round"></path><path d="M1088.58,413.56l-3.05,22.23l-0.67,4.91h-545.82l3.72,-27.14z" fill="#e99ff4" stroke="none" stroke-width="1" stroke-linecap="butt" stroke-linejoin="miter"></path><ellipse cx="112.07094" cy="690.66781" transform="rotate(-43.18)" rx="5.2" ry="4.63" fill="#1d252e" stroke="none" stroke-width="1" stroke-linecap="butt" stroke-linejoin="miter"></ellipse><ellipse cx="124.49058" cy="702.31766" transform="rotate(-43.18)" rx="5.2" ry="4.63" fill="#ffffff" stroke="none" stroke-width="1" stroke-linecap="butt" stroke-linejoin="miter"></ellipse><path d="M589,422.09v1c0.96557,-0.02332 1.89178,0.38272 2.52889,1.10864c0.63711,0.72592 0.91953,1.69698 0.77111,2.65136c-0.29504,2.24771 -2.18367,3.94536 -4.45,4c-0.95551,0.0197 -1.87209,-0.37834 -2.51,-1.09c-0.63944,-0.73257 -0.92789,-1.70743 -0.79,-2.67c0.29838,-2.24197 2.17915,-3.93636 4.44,-4v-1M588.99,422.09c-2.79025,0.0593 -5.12081,2.14364 -5.49,4.91c-0.18574,1.2493 0.18849,2.51698 1.02293,3.46512c0.83444,0.94814 2.04429,1.48039 3.30707,1.45488v0c2.776,-0.06751 5.09306,-2.13888 5.47,-4.89c0.18574,-1.2493 -0.18849,-2.51698 -1.02293,-3.46512c-0.83444,-0.94814 -2.04429,-1.48039 -3.30707,-1.45488z" fill="#ffffff" stroke="none" stroke-width="1" stroke-linecap="butt" stroke-linejoin="miter"></path><path d="M1026.92,465.89l-36.66,265.04h-440.15l38.29,-265.04z" fill="#e99ff4" stroke="none" stroke-width="1" stroke-linecap="butt" stroke-linejoin="miter"></path><path d="M783.12,636.71c0.11,-0.63 -0.62,-0.7 -1.73,-0.67l0.13,-0.75c1.1546,-0.08255 2.27573,-0.42436 3.28,-1l-1.49,8.45c0.30714,-0.35238 0.66031,-0.66183 1.05,-0.92c1.07129,-0.80401 2.38082,-1.22644 3.72,-1.2c2.07,0 2.95,1.16 2.64,3l-1.2,6.76v0.62c0,0.14 0.19,0.21 0.44,0.21h1.58l-0.14,0.74h-5.53l0.13,-0.74h1.21c0.2524,0.02214 0.50276,-0.0608 0.69202,-0.22924c0.18927,-0.16845 0.30068,-0.40749 0.30798,-0.66076l1.2,-6.76c0.15261,-0.58142 0.00145,-1.20058 -0.40189,-1.64628c-0.40335,-0.4457 -1.00439,-0.65771 -1.59811,-0.56372c-1.89573,0.07448 -3.59908,1.17935 -4.44,2.88l-0.97,6.13c-0.06,0.34 -0.15,0.89 0.51,0.89h1.16l-0.13,0.74h-5l0.13,-0.74h1.19c0.42,0 0.72,-0.19 0.85,-0.89z" fill="#1d252e" stroke="none" stroke-width="1" stroke-linecap="butt" stroke-linejoin="miter"></path><path d="M795.13,646l-0.1,0.55c-0.47,2.66 1,5.16 3.48,5.16c1.9,0 3.19,-1.25 4.59,-2.76l0.57,0.43c-2.38,2.42 -3.54,3.07 -5.54,3.07c-3.8,0 -4.82,-3.26 -4.36,-5.9c0.67,-3.77 3.67,-6.19 6.26,-6.19c2.59,0 4.56,2.25 4,5.64zM802.84,645.25c0.22889,-1.07842 0.03181,-2.20358 -0.55,-3.14c-0.58937,-0.69846 -1.47884,-1.07063 -2.39,-1c-1.88,0 -3.79,1.7 -4.59,4.15z" fill="#1d252e" stroke="none" stroke-width="1" stroke-linecap="butt" stroke-linejoin="miter"></path><path d="M808.89,636.71c0.11,-0.63 -0.62,-0.7 -1.73,-0.67l0.13,-0.75c1.15778,-0.08243 2.28219,-0.4242 3.29,-1l-1.5,8.45c0.29402,-0.34682 0.62992,-0.65585 1,-0.92c1.07129,-0.80401 2.38082,-1.22644 3.72,-1.2c2.07,0 3,1.16 2.64,3l-1.2,6.76v0.62c0,0.14 0.18,0.21 0.43,0.21h1.58l-0.14,0.74h-5.53l0.14,-0.74h1.28c0.25308,0.02519 0.50514,-0.05668 0.69513,-0.22576c0.18998,-0.16908 0.30054,-0.40995 0.30487,-0.66424l1.2,-6.76c0.15261,-0.58142 0.00145,-1.20058 -0.40189,-1.64628c-0.40335,-0.4457 -1.00439,-0.65771 -1.59811,-0.56372c-1.89505,0.07663 -3.5974,1.18085 -4.44,2.88l-1.07,6.09c-0.06,0.34 -0.16,0.89 0.51,0.89h1.16l-0.14,0.74h-5l0.13,-0.74h1.19c0.42,0 0.72,-0.19 0.85,-0.89z" fill="#1d252e" stroke="none" stroke-width="1" stroke-linecap="butt" stroke-linejoin="miter"></path><path d="M832.7,642.92c-0.15183,0.77959 -0.79922,1.36591 -1.59,1.44c-0.35387,-0.00394 -0.68623,-0.1706 -0.90106,-0.45183c-0.21483,-0.28123 -0.28821,-0.64571 -0.19894,-0.98817c0.1088,-0.80943 0.79339,-1.41748 1.61,-1.43c0.34953,0.00688 0.67657,0.17376 0.88727,0.45273c0.21069,0.27897 0.28173,0.63919 0.19273,0.97727z" fill="#1d252e" stroke="none" stroke-width="1" stroke-linecap="butt" stroke-linejoin="miter"></path><path d="M848.27,636.71c0,-0.24 0,-0.41 -0.06,-0.5c-0.06,-0.09 -0.69,-0.17 -1.7,-0.17l0.13,-0.75c1.16419,-0.08184 2.29524,-0.42354 3.31,-1l-2.81,15.89c-0.1,0.55 -0.06,1 0.68,1h1.63l-0.13,0.74h-6.23l0.14,-0.74h1.45c0.29372,0.03645 0.58942,-0.05038 0.81679,-0.23986c0.22737,-0.18948 0.3661,-0.46467 0.38321,-0.76014z" fill="#1d252e" stroke="none" stroke-width="1" stroke-linecap="butt" stroke-linejoin="miter"></path><path d="M856.61,652.5c-4.13,0 -5,-3.41 -4.55,-6c0.43164,-3.4282 3.25924,-6.05353 6.71,-6.23c2.81,0 5.09,2 4.35,6.23c-0.47,2.69 -2.61,6 -6.51,6zM861.34,642.37c-0.62051,-0.87172 -1.6411,-1.36883 -2.71,-1.32c-1.23131,0.01568 -2.41075,0.49818 -3.3,1.35c-1.06201,1.13077 -1.72565,2.57744 -1.89,4.12c-0.31,1.76 -0.25,5.21 3.3,5.21c3.24,0 4.62,-3.19 5,-5.21c0.38,-2.02 0.18,-3.28 -0.4,-4.15z" fill="#1d252e" stroke="none" stroke-width="1" stroke-linecap="butt" stroke-linejoin="miter"></path><path d="M875.92,652.16h-0.49l-1.77,-8.54l-4.08,8.38h-0.44l-2.25,-9.76c0,-0.65 -0.67,-0.65 -1.44,-0.65l0.13,-0.74h4.25l-0.13,0.74c-0.92,0 -1.49,0 -1.57,0.48c-0.00865,0.05634 -0.00865,0.11366 0,0.17l1.68,7.65l3.59,-7.41v-0.05v0c0.04482,-0.11736 0.08157,-0.23764 0.11,-0.36c0.07,-0.36 -0.18,-0.48 -0.58,-0.48h-1l0.13,-0.74h4.25l-0.13,0.74c-1,0 -1.48,0 -1.57,0.5c-0.02468,0.11199 -0.02468,0.22801 0,0.34l1.52,7.49l3.93,-7.59c0.04142,-0.07524 0.07174,-0.15608 0.09,-0.24c0.07,-0.38 -0.18,-0.5 -0.55,-0.5h-0.94l0.13,-0.74h4.2l-0.13,0.74c-1.14,0 -1.68,0 -2,0.74z" fill="#1d252e" stroke="none" stroke-width="1" stroke-linecap="butt" stroke-linejoin="miter"></path><path d="M994.38,512.89l-21.29,165.37h-277.65l22.32,-165.37z" fill="none" stroke="#1d252e" stroke-width="4" stroke-linecap="round" stroke-linejoin="round"></path><path d="M780.72,561.47c0.01649,-0.27197 -0.0071,-0.54489 -0.07,-0.81c-0.07,-0.27 -0.29,-0.41 -0.67,-0.41c-0.28954,0.02156 -0.57703,0.06502 -0.86,0.13l-1.27,0.24c-0.43,0.08 -0.84,0.15 -1.22,0.2c-0.27094,0.04878 -0.54493,0.07885 -0.82,0.09c-0.75,0 -1.1,-0.57 -1,-1.71c2.47333,-0.66667 4.76667,-1.33333 6.88,-2c2.11333,-0.66667 4.21667,-1.4 6.31,-2.2c0.55487,0.31306 0.89577,0.90293 0.89,1.54c-0.02221,0.23274 -0.06233,0.46342 -0.12,0.69c-0.07,0.24 -0.14,0.45 -0.2,0.61l-8.8,34.82h0.23c1.59,-2.38 3.17,-4.59 4.74,-6.65c1.42985,-1.90162 3.01531,-3.68108 4.74,-5.32c1.43952,-1.37383 3.05737,-2.5477 4.81,-3.49c1.46072,-0.80053 3.09452,-1.23301 4.76,-1.26c1.33302,-0.0744 2.64877,0.3299 3.71,1.14c0.97834,0.97724 1.42838,2.36455 1.21,3.73c-0.05048,0.76185 -0.14733,1.51992 -0.29,2.27c-0.15,0.87 -0.33,1.74 -0.54,2.6l-5.21,19.48c-0.06,0.22 -0.13,0.49 -0.2,0.82c-0.06398,0.2392 -0.10747,0.48342 -0.13,0.73c0,0.7 0.27,1 0.92,1c0.39812,-0.01604 0.78906,-0.11122 1.15,-0.28c0.445,-0.1925 0.879,-0.4095 1.3,-0.65l1.13,-0.65c0.24573,-0.16021 0.5276,-0.25646 0.82,-0.28c0.54,0 0.89,0.54 1.05,1.62c-1,0.7 -2,1.36 -3.09,2c-1.09,0.64 -2.09,1.17 -3.1,1.66c-0.91141,0.44345 -1.8461,0.83736 -2.8,1.18c-0.66961,0.25425 -1.37472,0.4027 -2.09,0.44c-0.58283,0.00456 -1.15962,-0.11831 -1.69,-0.36c-0.53,-0.24 -0.76,-0.82 -0.71,-1.75c0.02203,-0.28558 0.06211,-0.56948 0.12,-0.85c0.05061,-0.28778 0.12077,-0.57177 0.21,-0.85l5.73,-21.67c0.35077,-1.19411 0.58191,-2.42014 0.69,-3.66c0.09,-1.56 -0.63,-2.35 -2.14,-2.35c-1.06761,0.11655 -2.07847,0.54035 -2.91,1.22c-1.36762,0.96668 -2.63704,2.06528 -3.79,3.28c-1.4689,1.52597 -2.84471,3.13888 -4.12,4.83c-1.4,1.85 -2.73,3.77 -4,5.77c-0.54,0.92 -1.07,1.93 -1.59,3c-0.52282,1.12138 -0.97699,2.2735 -1.36,3.45c-0.39182,1.14577 -0.72557,2.31059 -1,3.49c-0.23228,1.01633 -0.38276,2.04964 -0.45,3.09c-0.04332,0.73257 0.00032,1.4677 0.13,2.19c-2.18897,0.23394 -4.35582,0.6419 -6.48,1.22c-0.48,-0.28 -0.7,-0.6 -0.68,-1c0.0173,-0.25969 0.05746,-0.51736 0.12,-0.77c0.07,-0.3 0.14,-0.55 0.21,-0.77l10.07,-40.59c0.41158,-1.53551 0.74534,-3.09082 1,-4.66c0.21792,-1.17106 0.3748,-2.35265 0.47,-3.54z" fill="#1d252e" stroke="none" stroke-width="1" stroke-linecap="butt" stroke-linejoin="miter"></path><path d="M816.8,595.32c-0.08,0.54 -0.15,1.08 -0.21,1.63c-0.06,0.55 -0.1,1.1 -0.13,1.7c-0.07095,1.21779 -0.03078,2.4395 0.12,3.65c0.13177,1.10999 0.47099,2.18532 1,3.17c0.48986,0.91965 1.21882,1.69007 2.11,2.23c1.0834,0.61176 2.31708,0.90632 3.56,0.85c1.50872,-0.01401 3.00504,-0.27409 4.43,-0.77c1.68516,-0.58318 3.28572,-1.38682 4.76,-2.39c0.33672,-0.27818 0.73405,-0.47342 1.16,-0.57c0.39968,-0.026 0.75409,0.25494 0.82,0.65c0.0959,0.32482 0.14638,0.66134 0.15,1c-0.91882,0.81062 -1.88018,1.5717 -2.88,2.28c-1.09038,0.7591 -2.24086,1.42798 -3.44,2c-1.25067,0.60944 -2.55658,1.09832 -3.9,1.46c-1.38428,0.38176 -2.81405,0.57352 -4.25,0.57c-1.90922,0.08587 -3.80615,-0.34604 -5.49,-1.25c-1.33735,-0.78868 -2.44959,-1.9078 -3.23,-3.25c-0.77272,-1.33498 -1.2724,-2.81022 -1.47,-4.34c-0.2089,-1.50707 -0.27586,-3.03042 -0.2,-4.55c0.1679,-2.91534 0.77821,-5.78819 1.81,-8.52c0.99184,-2.71891 2.40216,-5.26626 4.18,-7.55c1.70216,-2.17691 3.81553,-3.99808 6.22,-5.36c2.41419,-1.34337 5.13742,-2.03279 7.9,-2c1.11876,-0.00273 2.23257,0.1487 3.31,0.45c1.01039,0.272 1.96265,0.72611 2.81,1.34c0.81689,0.61523 1.46948,1.42238 1.9,2.35c0.47897,1.09747 0.67825,2.2966 0.58,3.49c-0.06214,1.87444 -0.71683,3.68095 -1.87,5.16c-1.23987,1.51405 -2.80087,2.73347 -4.57,3.57c-2.13954,1.01706 -4.40673,1.74027 -6.74,2.15c-2.78769,0.49711 -5.60917,0.78127 -8.44,0.85zM817.18,592.89c5.16,-0.42667 8.87,-1.48333 11.13,-3.17c2.11984,-1.4333 3.44793,-3.77503 3.59,-6.33c0.16809,-1.22377 -0.15553,-2.46429 -0.9,-3.45c-0.7428,-0.80544 -1.80587,-1.238 -2.9,-1.18c-1.31834,0.00861 -2.60248,0.42037 -3.68,1.18c-1.2237,0.85542 -2.29524,1.91005 -3.17,3.12c-1.01746,1.39025 -1.85103,2.90613 -2.48,4.51c-0.69491,1.71981 -1.22724,3.50092 -1.59,5.32z" fill="#1d252e" stroke="none" stroke-width="1" stroke-linecap="butt" stroke-linejoin="miter"></path><path d="M852.26,561.47c0.01307,-0.27246 -0.01388,-0.54536 -0.08,-0.81c-0.07,-0.27 -0.29,-0.41 -0.67,-0.41c-0.28954,0.02156 -0.57703,0.06502 -0.86,0.13l-1.31,0.24l-1.27,0.2c-0.26765,0.04832 -0.53827,0.07839 -0.81,0.09c-0.71,0 -1,-0.57 -1,-1.71c2.47,-0.65 4.76,-1.31 6.85,-2c2.09,-0.69 4.19,-1.42 6.29,-2.23c0.3281,0.1736 0.5964,0.4419 0.77,0.77c0.10016,0.24361 0.14128,0.50746 0.12,0.77c-0.02219,0.44123 -0.09945,0.87795 -0.23,1.3l-11.84,47.32c-0.07,0.27 -0.14,0.59 -0.22,0.94c-0.05328,0.22704 -0.09004,0.45765 -0.11,0.69c-0.06821,0.26573 0.00271,0.54792 0.18846,0.74982c0.18575,0.2019 0.46106,0.29605 0.73154,0.25018c0.41209,-0.00741 0.81784,-0.10288 1.19,-0.28c0.41,-0.19 0.83,-0.41 1.25,-0.65l1.13,-0.65c0.24921,-0.16063 0.53441,-0.25685 0.83,-0.28c0.54,0 0.87333,0.54 1,1.62c-0.98716,0.72061 -2.01194,1.38821 -3.07,2c-1.09,0.62 -2.14,1.17 -3.14,1.66c-0.91412,0.45254 -1.856,0.84666 -2.82,1.18c-0.68718,0.25333 -1.40861,0.40166 -2.14,0.44c-0.57947,0.00311 -1.15269,-0.11973 -1.68,-0.36c-0.53,-0.24 -0.77,-0.82 -0.72,-1.75c0.02695,-0.2856 0.07036,-0.5694 0.13,-0.85c0.04069,-0.28978 0.11106,-0.57461 0.21,-0.85l9.77,-39.21c0.41,-1.57 0.74,-3.12 1,-4.66c0.26,-1.54 0.46,-2.78 0.51,-3.65z" fill="#1d252e" stroke="none" stroke-width="1" stroke-linecap="butt" stroke-linejoin="miter"></path><path d="M872.39,561.47c0.01307,-0.27246 -0.01388,-0.54536 -0.08,-0.81c-0.07,-0.27 -0.29,-0.41 -0.67,-0.41c-0.28954,0.02156 -0.57703,0.06502 -0.86,0.13l-1.31,0.24l-1.27,0.2c-0.26765,0.04832 -0.53827,0.07839 -0.81,0.09c-0.71,0 -1,-0.57 -1,-1.71c2.48,-0.66667 4.76333,-1.33333 6.85,-2c2.08667,-0.66667 4.18333,-1.41 6.29,-2.23c0.3281,0.1736 0.5964,0.4419 0.77,0.77c0.10016,0.24361 0.14128,0.50746 0.12,0.77c-0.02219,0.44123 -0.09945,0.87795 -0.23,1.3l-11.84,47.32c-0.07,0.27 -0.14,0.59 -0.21,0.94c-0.0601,0.22605 -0.10025,0.45693 -0.12,0.69c-0.06821,0.26573 0.00271,0.54792 0.18846,0.74982c0.18575,0.2019 0.46106,0.29605 0.73154,0.25018c0.41209,-0.00741 0.81784,-0.10288 1.19,-0.28c0.41,-0.19 0.83,-0.41 1.25,-0.65l1.13,-0.65c0.24921,-0.16063 0.53441,-0.25685 0.83,-0.28c0.54,0 0.87333,0.54 1,1.62c-0.98716,0.72061 -2.01194,1.38821 -3.07,2c-1.09,0.62 -2.14,1.17 -3.14,1.66c-0.91412,0.45254 -1.856,0.84666 -2.82,1.18c-0.68718,0.25333 -1.40861,0.40166 -2.14,0.44c-0.57947,0.00311 -1.15269,-0.11973 -1.68,-0.36c-0.53,-0.24 -0.77,-0.82 -0.72,-1.75c0.02695,-0.2856 0.07036,-0.5694 0.13,-0.85c0.04565,-0.2888 0.1159,-0.57317 0.21,-0.85l9.89,-39.24c0.41,-1.57 0.74,-3.12 1,-4.66c0.26,-1.54 0.34,-2.75 0.39,-3.62z" fill="#1d252e" stroke="none" stroke-width="1" stroke-linecap="butt" stroke-linejoin="miter"></path><path d="M900.09,575.92c1.77915,-0.05106 3.54771,0.29036 5.18,1c1.38636,0.62052 2.58113,1.6012 3.46,2.84c0.89071,1.31157 1.51269,2.78665 1.83,4.34c0.3778,1.78702 0.50902,3.61737 0.39,5.44c-0.12262,3.53322 -0.94517,7.00698 -2.42,10.22c-1.25694,2.71829 -3.00258,5.18252 -5.15,7.27c-1.92713,1.85731 -4.2001,3.31826 -6.69,4.3c-2.24354,0.91162 -4.63847,1.39332 -7.06,1.42c-1.63897,0.05274 -3.26985,-0.25092 -4.78,-0.89c-1.24802,-0.55562 -2.31014,-1.45808 -3.06,-2.6c-0.8016,-1.2677 -1.32008,-2.69351 -1.52,-4.18c-0.27148,-1.84018 -0.34523,-3.70413 -0.22,-5.56c0.14221,-3.36975 0.94402,-6.67888 2.36,-9.74c1.24679,-2.74676 2.9359,-5.2703 5,-7.47c1.8265,-1.93547 3.97505,-3.53926 6.35,-4.74c1.9547,-1.03034 4.12106,-1.59504 6.33,-1.65zM891.83,609.61c1.64365,-0.00359 3.24631,-0.51336 4.59,-1.46c1.52841,-1.07908 2.81848,-2.46106 3.79,-4.06c1.17522,-1.90438 2.06785,-3.96923 2.65,-6.13c0.6962,-2.53006 1.11203,-5.12902 1.24,-7.75c0.25275,-2.73163 -0.01187,-5.48643 -0.78,-8.12c-0.49391,-1.85091 -2.21708,-3.10261 -4.13,-3c-1.78898,-0.00231 -3.52112,0.6282 -4.89,1.78c-1.54687,1.28768 -2.8333,2.85922 -3.79,4.63c-1.08904,1.99869 -1.92545,4.12499 -2.49,6.33c-0.60806,2.25533 -0.98006,4.56775 -1.11,6.9c-0.18667,3.56667 0.08333,6.27333 0.81,8.12c0.59153,1.74104 2.27458,2.87127 4.11,2.76z" fill="#1d252e" stroke="none" stroke-width="1" stroke-linecap="butt" stroke-linejoin="miter"></path><ellipse cx="165.94295" cy="766.23493" transform="rotate(-38.69)" rx="8.46" ry="7.71" fill="#1d252e" stroke="none" stroke-width="1" stroke-linecap="butt" stroke-linejoin="miter"></ellipse><path d="M623.72,491.51h38.13" fill="none" stroke="#1d252e" stroke-width="2.49" stroke-linecap="round" stroke-linejoin="round"></path><path d="M622.83,498.64h18.27" fill="none" stroke="#1d252e" stroke-width="2.49" stroke-linecap="round" stroke-linejoin="round"></path><ellipse cx="143.98396" cy="786.91256" transform="rotate(-38.69)" rx="8.46" ry="7.71" fill="#ffffff" stroke="none" stroke-width="1" stroke-linecap="butt" stroke-linejoin="miter"></ellipse><path d="M619.5,522.35h38.13" fill="none" stroke="#ffffff" stroke-width="2.49" stroke-linecap="round" stroke-linejoin="round"></path><path d="M618.61,529.48h18.27" fill="none" stroke="#ffffff" stroke-width="2.49" stroke-linecap="round" stroke-linejoin="round"></path><ellipse cx="121.5707" cy="808.80505" transform="rotate(-38.69)" rx="8.46" ry="7.71" fill="#ffffff" stroke="none" stroke-width="1" stroke-linecap="butt" stroke-linejoin="miter"></ellipse><path d="M615.69,553.44h38.13" fill="none" stroke="#ffffff" stroke-width="2.49" stroke-linecap="round" stroke-linejoin="round"></path><path d="M614.8,560.57h18.27" fill="none" stroke="#ffffff" stroke-width="2.49" stroke-linecap="round" stroke-linejoin="round"></path><ellipse cx="98.40471" cy="830.99413" transform="rotate(-38.69)" rx="8.46" ry="7.71" fill="#ffffff" stroke="none" stroke-width="1" stroke-linecap="butt" stroke-linejoin="miter"></ellipse><path d="M611.48,584.28h38.13" fill="none" stroke="#ffffff" stroke-width="2.49" stroke-linecap="round" stroke-linejoin="round"></path><path d="M610.59,591.41h18.27" fill="none" stroke="#ffffff" stroke-width="2.49" stroke-linecap="round" stroke-linejoin="round"></path><path d="M693.14,471.27l-32.24,248.29" fill="none" stroke="#1d252e" stroke-width="4" stroke-linecap="round" stroke-linejoin="round"></path><path d="M597.67,716.28h-18.85c-0.88422,0.01815 -1.73279,-0.3484 -2.3257,-1.00463c-0.59291,-0.65623 -0.87178,-1.53751 -0.7643,-2.41537l1.35,-13.76c0.21954,-1.92257 1.8254,-3.38749 3.76,-3.43h18.86c0.88513,-0.01519 1.73347,0.35369 2.326,1.01142c0.59253,0.65773 0.87117,1.53983 0.764,2.41858l-1.35,13.76c-0.22469,1.92232 -1.83495,3.38308 -3.77,3.42z" fill="#1d252e" stroke="none" stroke-width="1" stroke-linecap="butt" stroke-linejoin="miter"></path><path d="M584.83,700.43l-1.1,11.24l11.82,-5.93z" fill="#e99ff4" stroke="none" stroke-width="1" stroke-linecap="butt" stroke-linejoin="miter"></path><path d="M627.94,716h-18.85c-0.88959,0.03558 -1.74902,-0.3258 -2.34588,-0.9864c-0.59686,-0.6606 -0.86947,-1.55217 -0.74412,-2.4336l1.35,-13.76c0.21954,-1.92257 1.8254,-3.38749 3.76,-3.43h18.89c0.88513,-0.01519 1.73347,0.35369 2.326,1.01142c0.59253,0.65773 0.87117,1.53983 0.764,2.41858l-1.35,13.76c-0.22623,1.93348 -1.85346,3.39798 -3.8,3.42z" fill="#1d252e" stroke="none" stroke-width="1" stroke-linecap="butt" stroke-linejoin="miter"></path><path d="M618.48,700.11h-3.44l-1.1,11.24h3.43z" fill="#e99ff4" stroke="none" stroke-width="1" stroke-linecap="butt" stroke-linejoin="miter"></path><path d="M625.12,700.11h-3.44l-1.1,11.24h3.43z" fill="#e99ff4" stroke="none" stroke-width="1" stroke-linecap="butt" stroke-linejoin="miter"></path><path d="M434.8,466.75h-139.8c-23.62122,0 -42.77,19.14878 -42.77,42.77v0c-0.00187,4.28461 0.63858,8.54529 1.9,12.64l-27.76,27.9l0.41,0.83l43.93,-6.17c7.13795,4.93579 15.61174,7.57665 24.29,7.57h139.8c11.34239,0 22.22008,-4.50643 30.23942,-12.52765c8.01934,-8.02122 12.52323,-18.89996 12.52058,-30.24235v0c0.00265,-11.34239 -4.50123,-22.22113 -12.52058,-30.24235c-8.01934,-8.02122 -18.89703,-12.52765 -30.23942,-12.52765z" fill="#e99ff4" stroke="none" stroke-width="1" stroke-linecap="butt" stroke-linejoin="miter"></path><path d="M317.85,522.62h-2.79l0.86,-10.83c0.24,-3 -0.63,-5.58 -3.8,-5.58c-2.80723,0.12273 -5.06866,2.34531 -5.24,5.15l-0.9,11.26h-2.79l2.13,-26.9h2.79l-0.9,11.4h0.07c1.33466,-1.98511 3.54868,-3.20021 5.94,-3.26c2.25,0 6,1.38 5.52,7.6z" fill="#ffffff" stroke="none" stroke-width="1" stroke-linecap="butt" stroke-linejoin="miter"></path><path d="M336.31,521.85c-1.84109,0.79861 -3.83373,1.18759 -5.84,1.14c-5.35,0 -8.24,-3.76 -7.81,-9.24c0.46,-5.76 4,-9.89 9,-9.89c5.65,0 6.68,5.18 6.43,8.37c-0.05,0.64 -0.12,1.11 -0.19,1.55h-12.52c-0.37,5.08 2.38,7 5.67,7c1.67727,0.0259 3.34188,-0.29409 4.89,-0.94zM335.31,511.69c0.24,-2.48 -0.55,-5.71 -4.15,-5.71c-3.36,0 -5.1,3.19 -5.56,5.71z" fill="#ffffff" stroke="none" stroke-width="1" stroke-linecap="butt" stroke-linejoin="miter"></path><path d="M356.06,522.62h-2.79l0.86,-10.83c0.23,-3 -0.64,-5.58 -3.8,-5.58c-2.80916,0.12228 -5.07373,2.34371 -5.25,5.15l-0.89,11.26h-2.79l2.13,-26.9h2.79l-0.9,11.4h0.06c1.33785,-1.98667 3.55556,-3.20176 5.95,-3.26c2.25,0 6,1.38 5.51,7.6z" fill="#ffffff" stroke="none" stroke-width="1" stroke-linecap="butt" stroke-linejoin="miter"></path><path d="M361.23,512.64c0.02623,-1.17803 0.9721,-2.1283 2.15,-2.16c0.54986,-0.01809 1.0775,0.21768 1.43085,0.63936c0.35335,0.42168 0.49317,0.98243 0.37915,1.52064c-0.03224,1.16724 -0.98236,2.09968 -2.15,2.11c-0.53923,0.01475 -1.05636,-0.21445 -1.40757,-0.62388c-0.35122,-0.40943 -0.49906,-0.95541 -0.40243,-1.48612z" fill="#ffffff" stroke="none" stroke-width="1" stroke-linecap="butt" stroke-linejoin="miter"></path><path d="M371.67,522.62h-2.79l2.13,-26.9h2.79z" fill="#ffffff" stroke="none" stroke-width="1" stroke-linecap="butt" stroke-linejoin="miter"></path><path d="M393.52,513.31c-0.54,6.83 -5.27,9.72 -9.34,9.72c-4.71,0 -8.06,-3.53 -7.59,-9.45c0.49,-6.26 4.67,-9.72 9.34,-9.72c5.01,0 8.07,3.83 7.59,9.45zM385.66,506c-4,0 -5.93,3.91 -6.21,7.44c-0.32,4.07 1.67,7.36 5,7.36c3.33,0 5.91,-3.29 6.24,-7.43c0.23,-3.22 -1.03,-7.37 -5.03,-7.37z" fill="#ffffff" stroke="none" stroke-width="1" stroke-linecap="butt" stroke-linejoin="miter"></path><path d="M422,504.26l-7.27,18.36h-2.49l-2.16,-9.21c-0.49549,-1.97632 -0.87613,-3.97967 -1.14,-6h-0.1c-0.59002,2.07052 -1.31149,4.10131 -2.16,6.08l-3.79,9.18h-2.52l-4,-18.36h2.89l1.79,9.62c0.35,2 0.7,3.94 0.92,5.82h0.1c0.55,-1.82 1.31,-3.8 2.08,-5.79l3.82,-9.65h2.42l2.18,9.49c0.47,2.15 0.85,4.1 1.14,6h0.1c0.48,-1.82 1.14,-3.73 1.92,-5.92l3.44,-9.52z" fill="#ffffff" stroke="none" stroke-width="1" stroke-linecap="butt" stroke-linejoin="miter"></path><path d="M79.91,677.06c-1.3,10.66 -8.3,36 -7.23,42.14c1.07,6.14 61.55,44.46 95.24,64.22c14.77,1.36 28.31,-1 22.8,-11.08c-5.51,-10.08 -30.94,-9.24 -25,-3.57c0.4,0.38 -59.36,-51.63 -62.16,-58.16c-0.56,-4.34 10.06,-15 9.87,-18.69" fill="#ffffff" stroke="none" stroke-width="1" stroke-linecap="butt" stroke-linejoin="miter"></path><path d="M78.66,683.8c-1.3,10.66 -7,29.27 -6,35.4c1,6.13 61.55,44.46 95.24,64.22c14.77,1.36 28.31,-1 22.8,-11.08c-5.51,-10.08 -30.94,-9.24 -25,-3.57c0.4,0.38 -59.36,-51.63 -62.16,-58.16c-0.56,-4.34 8.35,-12.22 8.35,-12.22" fill="none" stroke="#1d252e" stroke-width="4" stroke-linecap="round" stroke-linejoin="round"></path><path d="M172.87,542.79l7.13,14.34c2.79,8.91 3,15.17 -2.9,24.57c-5.36,4.62 -8.44,7.27 -15.19,10.32l0.41,22.37c8.79,-0.76 13.13,-0.63 17.31,1.58c-6.31,6.83 -15.9,14.11 -31.62,14.11c-15.72,0 -23.87,-8.72 -23.87,-8.72l16.7,-5.67l-1,-25.26c-7.19,-4.23 -8.78,-7.73 -9.26,-15.82l1.12,-9.22l31.8,-22.6z" fill="#ffffff" stroke="none" stroke-width="1" stroke-linecap="butt" stroke-linejoin="miter"></path><path d="M133,618.58c2.61,-1 5.22,-2 7.86,-2.89c-0.4,-9.07 -1.34,-15.71 -1,-25.26c-6.5,-3.55 -8.94,-7.73 -9.26,-15" id="Path-20" fill="none" stroke="#1d252e" stroke-width="4" stroke-linecap="round" stroke-linejoin="round"></path><path d="M178.87,555.69c4.58,7.13 5.36,12.06 1.74,20.09c-3.82,8.46 -9.88,13.13 -18.67,16.24c0.36,8.54 0.05,14.24 0.41,22.37c3.37871,-0.44558 6.80129,-0.44558 10.18,0" id="Path-21" fill="none" stroke="#1d252e" stroke-width="4" stroke-linecap="round" stroke-linejoin="round"></path><path d="M100.18,818.27c1.62,-19.12667 3.28667,-38.90333 5,-59.33l117.32,-6.33c0.51333,26.96 1.00667,52.81 1.48,77.55" id="Path-31" fill="#1d252e" stroke="none" stroke-width="1" stroke-linecap="butt" stroke-linejoin="miter"></path><path d="M238.24,763.23c0,0 53.53,-17 63,-10.22c9.47,6.78 -1.35,31.75 -9.47,48.7c-16.52,34.48 -105.29,41.14 -123.32,40.59c-18.03,-0.55 8.27,-63.59 8.27,-63.59z" fill="#1d252e" stroke="none" stroke-width="1" stroke-linecap="butt" stroke-linejoin="miter"></path><path d="M128.11,765.67c0,0 -53.53,-17 -63,-10.22c-9.47,6.78 0,32.47 9.47,48.71c9.47,16.24 65.28,45.3 109,36.94c43.72,-8.36 -21.47,-57.89 -21.47,-57.89z" fill="#1d252e" stroke="none" stroke-width="1" stroke-linecap="butt" stroke-linejoin="miter"></path><path d="M129.54,569.93c8.37436,2.9163 17.35467,3.64602 26.09,2.12c10.54,-3.72 8.72,-15.92 8.9,-24.6c6.45,-7.5 13.3,4.76 16.63,-9.75c4.36,-18.93 -11.7,-27 -33.12,-25c-6.76,0.64 -11.94,4.35 -13,11.65c-4.92,0.89 -9.21,2.1 -11.33,6.76c-3.1,12.55 0.88,27.19 5.83,38.82z" id="Path-23" fill="#1d252e" stroke="none" stroke-width="1" stroke-linecap="butt" stroke-linejoin="miter"></path><path d="M238.24,784.17c-20.27,10.51 -37.3,19.63 -61.6,19.52c-24.3,-0.11 -52.69,-7.22 -76.33,-14.34c-1.31,-22.35 4.41,-26.42 2.69,-53.28c-0.64,-10.21 -2.19,-24.76 -3.34,-38.42c-1.9,-22.27 -9.64,-63.19 -2,-68.95c7.64,-5.76 15.8,-7.2 28.48,-9.06c8.25,7.05 23.84,5.43 32.74,3.74c7.91,-1.51 14.39,-2.71 18,-9.29c5.5001,0.18283 10.97555,0.82169 16.37,1.91c0.07264,-0.01429 0.14736,-0.01429 0.22,0c4.34618,1.07805 8.597,2.50948 12.71,4.28c4,21.26 7.19,42.72 10.55,64.14c5.27,33.65 11.12,67.19 21.51,99.75z" fill="#e99ff4" stroke="none" stroke-width="1" stroke-linecap="butt" stroke-linejoin="miter"></path><path d="M223.17,684.76c10.61,4.12 44.3,14.38 50.83,13.41c6.53,-0.97 29.41,-43 54.43,-82.33c10.09,-14.26 15.5,-29.8 1.54,-31c-13.96,-1.2 -16.78,10.85 -18.42,23.25c0.64,-0.15 -38.79,54.3 -45.79,57.09c-4.61,0.46 -17.93,-13.26 -21.79,-14" fill="#ffffff" stroke="none" stroke-width="1" stroke-linecap="butt" stroke-linejoin="miter"></path><path d="M242.87,692c14.39,4.14 26.39,6.86 31.13,6.16c6.52,-1 37.36,-51.67 54.43,-82.33c10.09,-14.26 15.5,-29.8 1.54,-31c-13.96,-1.2 -15.39,9.23 -18.42,23.25c0.64,-0.15 -38.79,54.3 -45.79,57.09c-4.61,0.46 -12.28,-7.74 -12.28,-7.74" fill="none" stroke="#1d252e" stroke-width="4" stroke-linecap="round" stroke-linejoin="round"></path><path d="M251.12,652.53c-6.63,12.25 -13.29,24.25 -17.24,37.66l-17.15,-5.75c-6.94667,-2.35333 -13.9,-4.68667 -20.86,-7c-0.88,-21 -1.75,-40.4 -2.62,-61.45v0h0.22c4.34618,1.07805 8.597,2.50948 12.71,4.28c16.95,7.29 31.48,19.73 44.94,32.26z" fill="#e99ff4" stroke="none" stroke-width="1" stroke-linecap="butt" stroke-linejoin="miter"></path><path d="M99.68,697.65c-10.5,5.27 -19.45,-22.53 -19.45,-22.53l8.36,-37c0,0 6.66,-9 11.37,-11.09c16.24,-7.25 1.83,69.07 -0.28,70.62z" fill="#e99ff4" stroke="none" stroke-width="1" stroke-linecap="butt" stroke-linejoin="miter"></path><path d="M242.33,644.56c-11,-9.64 -22.82,-18.56 -36.15,-24.26" fill="none" stroke="#1d252e" stroke-width="4" stroke-linecap="round" stroke-linejoin="round"></path><path d="M231.24,759.58c-6.27,-24.75 -10.54,-49.92 -14.51,-75.14l8.79,2.94" fill="none" stroke="#1d252e" stroke-width="4" stroke-linecap="round" stroke-linejoin="round"></path><path d="M167.51,550.1l6.49,-0.77z" id="Path-22" fill="none" stroke="#1d252e" stroke-width="4" stroke-linecap="round" stroke-linejoin="round"></path><path d="M167.35,555.24l6.49,-0.77z" id="Path-22-2" fill="none" stroke="#1d252e" stroke-width="4" stroke-linecap="round" stroke-linejoin="round"></path><path d="M103.74,649.63c0,0 -1.79,42 -1.43,54.52" fill="none" stroke="#1d252e" stroke-width="4" stroke-linecap="round" stroke-linejoin="round"></path></g></g></svg>